<svg width="84" height="84" viewBox="0 0 84 84" fill="none" xmlns="http://www.w3.org/2000/svg">
<g clip-path="url(#clip0)">
<path d="M48.6355 41.36C47.0931 36.7837 42.1327 34.3243 37.5564 35.8669C33.2672 37.3127 30.7904 41.7925 31.8467 46.1938C34.9946 57.138 46.5089 66.9595 57.0544 75.3049C57.8117 75.9046 58.9116 75.7771 59.5115 75.0198C60.1113 74.2625 59.9837 73.1625 59.2264 72.5626C49.1041 64.553 38.0691 55.1757 35.2079 45.2283C34.4072 42.4418 36.017 39.5339 38.8036 38.7331C41.5901 37.9324 44.498 39.5423 45.2988 42.3288C47.2085 48.9743 56.7047 57.1869 65.7391 64.3361C66.4964 64.9358 67.5964 64.8083 68.1963 64.051C68.7961 63.2937 68.6685 62.1937 67.9112 61.5938C63.1405 57.827 50.5069 47.8306 48.6355 41.36Z" fill="#FFC107"/>
<path d="M61.8917 36.8515C58.0896 25.1944 45.7713 18.6095 33.9664 21.9233C21.8973 25.3864 14.9207 37.9778 18.3839 50.0469C18.3864 50.0554 18.3888 50.0641 18.3913 50.0726C21.2629 60.0481 15.107 62.8146 13.1448 63.4232C12.2234 63.7129 11.7113 64.6948 12.001 65.6162C12.2907 66.5377 13.2727 67.0497 14.1941 66.76C19.5421 65.0882 24.7361 59.4639 21.7525 49.1037C18.8112 38.8945 24.703 28.2341 34.912 25.2927C34.9174 25.2913 34.9229 25.2896 34.9281 25.2882C45.0224 22.4508 55.5397 28.1716 58.6423 38.1875C58.6836 38.3239 58.7425 38.4544 58.8172 38.5758C58.9991 38.8766 59.3734 39.5096 70.6148 48.6315C71.3643 49.2409 72.466 49.1275 73.0755 48.3779C73.6849 47.6284 73.5714 46.5267 72.8218 45.9173C68.7366 42.6016 62.7661 37.6734 61.8917 36.8515Z" fill="#FFC107"/>
<path d="M55.365 39.4257C52.9495 31.0846 44.2441 26.2666 35.8934 28.6494C27.694 31.1808 22.9349 39.7129 25.0891 48.0195C28.6218 64.1087 25.981 67.8232 18.7338 70.0897C17.8123 70.3794 17.3003 71.3613 17.59 72.2827C17.8797 73.2042 18.8617 73.7162 19.7831 73.4265C29.9088 70.2786 32.1089 63.6609 28.5272 47.2674C26.7872 40.767 30.4659 34.0472 36.8796 32.0106C43.3784 30.1656 50.147 33.9164 52.0281 40.405C52.7277 42.7903 54.5849 46.0642 68.9079 57.4002C69.6652 58 70.7652 57.8724 71.3651 57.1151C71.9648 56.3578 71.8373 55.2578 71.08 54.6579C58.0791 44.3749 55.8546 41.1187 55.365 39.4257Z" fill="#FFC107"/>
<path d="M60.1777 63.7695C54.2597 59.2785 44.3543 51.7655 41.9164 43.2942C41.6338 42.3706 40.6558 41.851 39.7322 42.1339C38.8313 42.4096 38.3108 43.3496 38.5551 44.2595C41.3113 53.8501 51.7972 61.8038 58.0616 66.5572C59.3347 67.4738 60.5604 68.4544 61.7341 69.4952C62.4288 70.1663 63.536 70.1471 64.207 69.4524C64.8617 68.7746 64.8617 67.7001 64.207 67.0225C62.9262 65.8632 61.581 64.7771 60.1777 63.7695Z" fill="#FFC107"/>
<path d="M50.7132 75.9345C48.9456 72.6552 45.6898 70.4438 41.99 70.0094C36.0439 70.0094 35.1242 80.1176 34.9946 82.1427C34.9348 83.1066 35.6677 83.9365 36.6315 83.9966H36.7435C37.6685 83.9984 38.435 83.2794 38.4924 82.3562C38.7128 78.7537 40.0908 73.5072 41.99 73.5072C44.5818 73.5072 46.4215 76.0045 47.8976 78.0087C48.3852 78.7038 48.9192 79.3652 49.496 79.9884C50.1907 80.6594 51.2978 80.6401 51.9689 79.9454C52.6236 79.2676 52.6236 78.1933 51.9689 77.5155C51.5165 77.0162 51.097 76.4881 50.7132 75.9345Z" fill="#FFC107"/>
<path d="M34.9143 60.7335C34.5855 59.8254 33.5828 59.3557 32.6747 59.6844C31.8205 59.9936 31.3452 60.9055 31.5811 61.7828C33.0781 66.4593 30.1365 75.6371 25.7121 77.0746C24.7903 77.3632 24.277 78.3443 24.5654 79.266C24.8539 80.1878 25.835 80.7011 26.7568 80.4127C26.7689 80.4089 26.7809 80.405 26.7928 80.4009C33.5221 78.2325 36.7679 66.5432 34.9143 60.7335Z" fill="#FFC107"/>
<path d="M72.2588 36.8654C70.0728 36.1658 68.3554 33.3678 66.3652 30.1743C62.154 23.3678 56.3793 14.0465 40.241 14.0465C23.8294 14.0659 10.53 27.3653 10.5109 43.7768C10.5109 44.7427 11.2939 45.5257 12.2598 45.5257C13.2256 45.5257 14.0086 44.7427 14.0086 43.7768C14.0241 29.2953 25.7597 17.5597 40.2412 17.5443C54.4312 17.5443 59.4014 25.568 63.3958 32.0176C65.7462 35.8126 67.7748 39.0899 71.1816 40.1951C72.097 40.5035 73.0889 40.0115 73.3973 39.0963C73.7057 38.181 73.2137 37.189 72.2985 36.8806C72.2865 36.8765 72.2745 36.8728 72.2624 36.8688L72.2588 36.8654Z" fill="#FFC107"/>
<path d="M14.0085 57.7675C14.9744 57.7675 15.7574 56.9844 15.7572 56.0186C15.7572 55.7466 15.6938 55.4783 15.572 55.2352C14.8257 53.8362 14.2982 52.3311 14.0085 50.7722C14.0085 49.8064 13.2255 49.0233 12.2596 49.0233C11.2938 49.0233 10.5107 49.8064 10.5107 50.7722C10.7914 52.8813 11.4466 54.9234 12.4449 56.8023C12.7417 57.3938 13.3468 57.7675 14.0085 57.7675Z" fill="#FFC107"/>
<path d="M13.0992 20.7867C13.9239 21.2893 15.0001 21.0285 15.5028 20.2038C15.5038 20.2022 15.5047 20.2007 15.5056 20.1991C17.0236 17.6947 24.5015 10.5489 38.4923 10.5489C51.9373 10.5489 61.5035 17.3589 63.2278 20.1991C63.729 21.0249 64.8048 21.2879 65.6307 20.7867C66.4565 20.2855 66.7195 19.2096 66.2183 18.3838C63.8188 14.4313 53.2245 7.05131 38.4923 7.05131C22.8262 7.05131 14.4284 15.2324 12.5116 18.3872C12.0124 19.2122 12.2754 20.2856 13.0992 20.7867Z" fill="#FFC107"/>
<path d="M23.4522 6.89735C24.2531 6.54764 24.9317 6.19776 25.5753 5.84805C28.2056 4.52249 30.0978 3.55352 38.4922 3.55352C44.1602 3.24119 49.8294 4.14884 55.1165 6.2153C55.7846 6.46369 56.4562 6.71192 57.1592 6.95326C57.3425 7.01687 57.5352 7.04999 57.7293 7.05114C58.6951 7.05294 59.4795 6.27138 59.4813 5.30553C59.4826 4.55692 59.0075 3.89061 58.2994 3.64796C57.6208 3.41367 56.9772 3.17577 56.3337 2.94837C50.6578 0.734836 44.577 -0.251015 38.4923 0.0559058C29.2445 0.0559058 26.929 1.24506 23.991 2.75261C23.3999 3.05691 22.7704 3.37875 22.0358 3.70747C21.1384 4.06424 20.6999 5.08107 21.0565 5.97855C21.4133 6.87604 22.4301 7.31445 23.3276 6.95785C23.3735 6.93965 23.4186 6.91948 23.4627 6.89735H23.4522Z" fill="#FFC107"/>
<path d="M70.0518 30.3178C70.3805 31.2259 71.3833 31.6956 72.2914 31.3669C73.1456 31.0577 73.6209 30.1458 73.385 29.2685C72.3927 26.6991 71.1619 24.2282 69.709 21.8884C69.2029 21.0655 68.1255 20.8086 67.3026 21.3147C66.4798 21.8209 66.2228 22.8982 66.729 23.7211C68.0309 25.8167 69.143 28.0244 70.0518 30.3178Z" fill="#FFC107"/>
<path d="M58.1282 75.6826C57.7345 75.6823 57.3525 75.5492 57.044 75.3049C46.4985 66.9559 34.9947 57.1381 31.8468 46.1938C30.7196 41.4979 33.6127 36.7775 38.3087 35.6503C42.71 34.594 47.1899 37.0708 48.6356 41.36C50.4963 47.8271 63.1299 57.827 67.8727 61.5905C68.6484 62.1662 68.8105 63.2615 68.2349 64.037C67.6593 64.8125 66.5639 64.9749 65.7884 64.3992C65.7597 64.3779 65.7315 64.3556 65.7041 64.3327C56.6696 57.1835 47.1664 48.9743 45.2603 42.3254C44.4596 39.5398 41.5523 37.9308 38.7669 38.7315C35.9814 39.5323 34.3723 42.4395 35.1731 45.2249C38.0342 55.1723 49.0693 64.5496 59.1881 72.5592C59.9454 73.1587 60.0732 74.2587 59.4736 75.0159C59.1414 75.4354 58.6354 75.6797 58.1003 75.679L58.1282 75.6826Z" fill="#0038FF"/>
<path d="M13.6588 66.83C12.693 66.8282 11.9114 66.0438 11.9132 65.078C11.9145 64.3153 12.4102 63.6414 13.1378 63.4127C15.0929 62.8007 21.2489 60.034 18.3843 50.0622C14.9134 37.9954 21.8817 25.3995 33.9485 21.9286C33.9544 21.9269 33.9605 21.9251 33.9664 21.9235C45.7727 18.6074 58.0931 25.1927 61.8954 36.8516C62.7663 37.6701 68.7368 42.6018 72.822 45.9176C73.5529 46.5488 73.6337 47.6532 73.0025 48.3843C72.3982 49.084 71.3536 49.1924 70.6185 48.6318C59.3734 39.5063 58.9993 38.8733 58.8173 38.5725C58.745 38.4515 58.6874 38.3223 58.646 38.1877C55.5433 28.17 45.0237 22.4486 34.9283 25.2883C24.717 28.2223 18.8176 38.8786 21.7516 49.0897C21.7519 49.0909 21.7522 49.0922 21.7525 49.0934C24.7326 59.45 19.542 65.0776 14.1905 66.7496C14.0185 66.8039 13.8392 66.8311 13.6588 66.83Z" fill="#0038FF"/>
<path d="M19.255 73.507C18.2892 73.5052 17.5076 72.7208 17.5094 71.755C17.5107 70.9923 18.0063 70.3184 18.734 70.0897C25.9812 67.8232 28.6184 64.1016 25.0857 48.0195C22.9333 39.7131 27.6917 31.1823 35.89 28.6494C44.2408 26.2727 52.943 31.088 55.3651 39.4257C55.8512 41.1151 58.0723 44.3713 71.0521 54.6476C71.8278 55.2232 71.9899 56.3186 71.4143 57.0941C70.8387 57.8698 69.7433 58.0319 68.9678 57.4563C68.9391 57.435 68.9109 57.4127 68.8835 57.3897C54.543 46.0502 52.6857 42.773 52.0037 40.3945C50.1294 33.899 43.3527 30.1446 36.8518 32.0001C30.4309 34.0383 26.7518 40.7693 28.5028 47.2745C32.1019 63.6716 29.9018 70.2717 19.7587 73.4335C19.5954 73.4829 19.4257 73.5076 19.255 73.507Z" fill="#0038FF"/>
<path d="M62.976 70.0094C62.5118 70.0102 62.0664 69.8266 61.7378 69.4987C60.5637 68.4571 59.338 67.4753 58.0652 66.5572C51.8009 61.8038 41.315 53.8501 38.5587 44.2595C38.2761 43.336 38.7955 42.3582 39.719 42.0753C40.6426 41.7927 41.6204 42.3121 41.9032 43.2356C41.9091 43.255 41.9147 43.2745 41.9199 43.294C44.3683 51.7653 54.2597 59.2783 60.1778 63.7693C61.5819 64.7786 62.9283 65.8656 64.2105 67.0256C64.8924 67.7096 64.8908 68.8169 64.2066 69.4988C63.8799 69.8249 63.4375 70.0084 62.976 70.0094Z" fill="#0038FF"/>
<path d="M36.7434 84H36.6314C35.6675 83.94 34.9347 83.1101 34.9945 82.1462C35.1204 80.121 36.0438 70.0128 41.9899 70.0128C45.6974 70.4439 48.9614 72.6567 50.734 75.9414C51.1155 76.4959 51.5338 77.024 51.9861 77.5224C52.6572 78.217 52.6379 79.3242 51.9432 79.9953C51.2654 80.6499 50.191 80.6499 49.5132 79.9953C48.9353 79.3744 48.4013 78.714 47.9149 78.0192C46.4248 76.0045 44.5851 73.5072 41.9897 73.5072C40.0939 73.5072 38.7125 78.7537 38.4921 82.3598C38.4349 83.2829 37.6684 84.0018 36.7434 84Z" fill="#0038FF"/>
<path d="M26.2503 80.5024C25.2845 80.5042 24.5 79.7228 24.4982 78.7569C24.4967 77.996 24.9874 77.3215 25.7118 77.0887C30.1328 75.6512 33.0569 66.4732 31.5808 61.797C31.235 60.895 31.6859 59.8838 32.5876 59.538C33.4894 59.1922 34.5008 59.6431 34.8466 60.5448C34.872 60.6111 34.8933 60.6788 34.9105 60.7477C36.7678 66.5573 33.5115 78.2361 26.7889 80.4325C26.6142 80.4837 26.4325 80.5073 26.2503 80.5024Z" fill="#0038FF"/>
<path d="M12.2598 45.5257C11.2939 45.5257 10.5109 44.7427 10.5109 43.7769C10.5302 27.3653 23.8294 14.0659 40.241 14.0467C56.3793 14.0467 62.1539 23.3679 66.3686 30.1745C68.3588 33.3819 70.0761 36.1555 72.2622 36.8656C73.184 37.1541 73.6973 38.1352 73.4089 39.057C73.1205 39.9787 72.1393 40.492 71.2175 40.2037C71.2054 40.1999 71.1934 40.1959 71.1815 40.1918C67.7747 39.0866 65.7461 35.8092 63.3956 32.0143C59.4012 25.5682 54.4312 17.5445 40.241 17.5445C25.7595 17.5599 14.0239 29.2955 14.0085 43.777C14.0085 44.7427 13.2256 45.5257 12.2598 45.5257Z" fill="#0038FF"/>
<path d="M14.0085 57.7675C13.3455 57.7688 12.7387 57.395 12.4416 56.8021C11.4436 54.9234 10.7897 52.8812 10.5109 50.7721C10.5109 49.8062 11.2939 49.0232 12.2598 49.0232C13.2256 49.0232 14.0086 49.8062 14.0086 50.7721C14.2992 52.3308 14.8264 53.8359 15.5721 55.2351C16.0048 56.0986 15.6556 57.1494 14.792 57.582C14.5487 57.704 14.2805 57.7675 14.0085 57.7675Z" fill="#0038FF"/>
<path d="M64.7249 21.0419C64.1127 21.0423 63.5449 20.7225 63.2279 20.199C61.507 17.3589 51.9374 10.5489 38.4924 10.5489C24.5018 10.5489 17.0237 17.6947 15.5022 20.199C15.031 21.0421 13.9655 21.3436 13.1224 20.8722C12.2794 20.401 11.9779 19.3355 12.4492 18.4925C12.4699 18.4554 12.492 18.4192 12.5153 18.3838C14.4285 15.2324 22.8265 7.0513 38.4926 7.0513C53.2247 7.0513 63.8192 14.4313 66.2185 18.3872C66.7189 19.2134 66.4546 20.2887 65.6285 20.7889C65.3558 20.954 65.0435 21.0416 64.7249 21.0419Z" fill="#0038FF"/>
<path d="M57.7295 7.0513C57.5355 7.05163 57.3429 7.01982 57.1594 6.95687C56.4598 6.71553 55.7814 6.46369 55.1133 6.21891C49.8273 4.15212 44.1596 3.24316 38.4924 3.55369C30.0979 3.55369 28.2058 4.52249 25.593 5.86215C24.9495 6.19448 24.2674 6.54075 23.47 6.91145C22.5853 7.30264 21.5509 6.9026 21.1597 6.01774C20.7685 5.13305 21.1685 4.09867 22.0534 3.70747C22.7914 3.37514 23.4175 3.05346 24.0122 2.74917C26.9292 1.24522 29.2482 0.0559066 38.4925 0.0559066C44.5753 -0.254293 50.6549 0.727951 56.3306 2.93804C56.9742 3.17594 57.6178 3.41728 58.2963 3.63763C59.2159 3.93275 59.7222 4.91761 59.4271 5.83723C59.191 6.57207 58.5012 7.06557 57.7295 7.0513Z" fill="#0038FF"/>
<path d="M71.7201 31.5349C70.9595 31.5345 70.2865 31.0424 70.0551 30.3178C69.1465 28.0198 68.0346 25.8074 66.7323 23.7072C66.2262 22.8843 66.4829 21.8069 67.306 21.3008C68.1289 20.7947 69.2062 21.0514 69.7123 21.8745C71.164 24.2146 72.3934 26.6854 73.3849 29.2545C73.6785 30.1746 73.1706 31.1587 72.2505 31.4521C72.0791 31.5069 71.9001 31.5349 71.7201 31.5349Z" fill="#0038FF"/>
</g>
<defs>
<clipPath id="clip0">
<rect width="84" height="84" fill="white"/>
</clipPath>
</defs>
</svg>
