<svg width="16" height="16" viewBox="0 0 16 16" fill="none" xmlns="http://www.w3.org/2000/svg">
<path fill-rule="evenodd" clip-rule="evenodd" d="M16 2.5C16 2.22386 15.7761 2 15.5 2H0.5C0.223858 2 0 2.22386 0 2.5V15.5C0 15.7761 0.223858 16 0.5 16H15.5C15.7761 16 16 15.7761 16 15.5V2.5ZM14.546 6C14.546 5.72386 14.3221 5.5 14.046 5.5H1.95508C1.67894 5.5 1.45508 5.72386 1.45508 6V13.75C1.45508 14.0261 1.67894 14.25 1.95508 14.25H14.046C14.3221 14.25 14.546 14.0261 14.546 13.75V6Z" fill="white"/>
<path d="M4 1C4 0.447715 4.44772 0 5 0V0C5.55228 0 6 0.447715 6 1V2H4V1Z" fill="white"/>
<path d="M10 1C10 0.447715 10.4477 0 11 0V0C11.5523 0 12 0.447715 12 1V2H10V1Z" fill="white"/>
</svg>
