<svg width="22" height="22" viewBox="0 0 22 22" fill="none" xmlns="http://www.w3.org/2000/svg">
<g clip-path="url(#clip0)">
<rect width="22" height="22" fill="white"/>
<path d="M21.1602 4.06907L7.68624 1.21761C7.11618 1.097 6.55115 1.46479 6.43055 2.03485L6.17456 3.6799L21.7212 6.96982L21.9772 5.32477C22.0978 4.75492 21.7302 4.18971 21.1602 4.06907Z" fill="#0038FF"/>
<path d="M15.4939 7.31869C15.3365 6.75194 14.7442 6.41694 14.1777 6.57407L11.6198 7.28415L5.58984 6.008L4.92667 9.1414L0.78317 10.2914C0.216631 10.4486 -0.118368 11.0409 0.0387602 11.6075L2.37387 20.0221C2.53125 20.5886 3.12356 20.9238 3.6901 20.7665L17.0846 17.0494C17.6511 16.892 17.9861 16.2999 17.829 15.7331L17.4282 14.2886L18.9304 14.6062C19.5005 14.727 20.0655 14.3592 20.1861 13.7892L21.1365 9.29795L15.7254 8.1529L15.4939 7.31869ZM17.0408 11.5953L17.372 10.0297C17.4218 9.79533 17.6542 9.64413 17.8886 9.69363L19.4542 10.0251C19.6888 10.0749 19.84 10.307 19.7905 10.5417L19.4593 12.1073C19.4095 12.3417 19.1771 12.4931 18.9427 12.4434L17.3771 12.1121C17.1423 12.0622 16.991 11.8298 17.0408 11.5953ZM1.01626 11.1312L4.72303 10.1028L13.4691 7.67573L14.4103 7.41424C14.4275 7.40961 14.4446 7.40741 14.4614 7.40741C14.5369 7.40741 14.6271 7.45695 14.6535 7.55182L14.764 7.94976L15.1102 9.1973L1.3354 13.0199L0.878684 11.3746C0.85007 11.2713 0.91305 11.1598 1.01626 11.1312ZM16.989 15.966C17.0067 16.0298 16.9882 16.0826 16.9695 16.1157C16.951 16.1487 16.9153 16.1918 16.8515 16.2094L3.45723 19.9265C3.4403 19.9312 3.4229 19.9336 3.40615 19.9336C3.33066 19.9336 3.24039 19.8838 3.21401 19.789L1.85201 14.8808L15.6268 11.0581L16.467 14.0852L16.989 15.966Z" fill="#0038FF"/>
<path d="M5.6215 16.3018C5.55723 16.0707 5.31598 15.9342 5.08487 15.9983L3.52059 16.4325C3.2897 16.4966 3.15303 16.7381 3.2173 16.9692L3.65134 18.5332C3.71561 18.7643 3.95686 18.9008 4.18797 18.8365L5.75224 18.4025C5.98335 18.3384 6.11981 18.097 6.05575 17.8659L5.6215 16.3018Z" fill="#0038FF"/>
</g>
<defs>
<clipPath id="clip0">
<rect width="22" height="22" fill="white"/>
</clipPath>
</defs>
</svg>
