<svg width="10" height="10" viewBox="0 0 10 10" fill="none" xmlns="http://www.w3.org/2000/svg">
<path d="M9.85338 0.146623C9.65788 -0.0488744 9.34189 -0.0488744 9.1464 0.146623L5 4.29307L0.853604 0.146623C0.658109 -0.0488744 0.342116 -0.0488744 0.146621 0.146623C-0.0488738 0.342121 -0.0488738 0.658117 0.146621 0.853615L4.29302 5.00006L0.146621 9.14651C-0.0488738 9.34201 -0.0488738 9.658 0.146621 9.8535C0.244119 9.951 0.372116 10 0.500113 10C0.62811 10 0.756107 9.951 0.853604 9.8535L5 5.70705L9.1464 9.8535C9.24389 9.951 9.37189 10 9.49989 10C9.62788 10 9.75588 9.951 9.85338 9.8535C10.0489 9.658 10.0489 9.34201 9.85338 9.14651L5.70698 5.00006L9.85338 0.853615C10.0489 0.658117 10.0489 0.342121 9.85338 0.146623Z" fill="#0038FF"/>
</svg>
