<svg width="18" height="18" viewBox="0 0 18 18" fill="none" xmlns="http://www.w3.org/2000/svg">
<path d="M9 0C4.02949 0 0 4.02949 0 9C0 13.9705 4.02949 18 9 18C13.9705 18 18 13.9705 18 9C17.9944 4.03184 13.9682 0.00556643 9 0ZM16.7837 12.1529L14.2242 12.5946C14.5172 11.5201 14.6754 10.4134 14.6952 9.3H17.3925C17.3587 10.2794 17.1526 11.2452 16.7837 12.1529V12.1529ZM0.607471 9.3H3.30483C3.32461 10.4134 3.48281 11.5201 3.77578 12.5946L1.21626 12.1529C0.847412 11.2452 0.641309 10.2794 0.607471 9.3ZM1.21626 5.84707L3.77578 5.40542C3.48281 6.47988 3.32461 7.58657 3.30483 8.7H0.607471C0.641309 7.72061 0.847412 6.75483 1.21626 5.84707ZM9.3 4.81685C10.378 4.83062 11.4533 4.92876 12.5161 5.11055L13.575 5.29321C13.9003 6.40034 14.0754 7.54614 14.0955 8.7H9.3V4.81685ZM12.6183 4.51919C11.5219 4.33184 10.4123 4.23062 9.3 4.21685V0.616846C11.0199 0.78208 12.5139 2.35679 13.3605 4.64854L12.6183 4.51919ZM8.7 4.21685C7.58774 4.23062 6.47842 4.33184 5.38198 4.51919L4.63945 4.64766C5.48613 2.35532 6.98013 0.780029 8.7 0.615527V4.21685ZM5.48423 5.11055C6.54683 4.92876 7.62202 4.83062 8.7 4.81685V8.7H3.90454C3.92461 7.54614 4.09966 6.40034 4.425 5.29321L5.48423 5.11055ZM3.90454 9.3H8.7V13.1832C7.62202 13.1694 6.54668 13.0712 5.48394 12.8895L4.425 12.7068C4.09966 11.5997 3.92461 10.4539 3.90454 9.3V9.3ZM5.38169 13.4808C6.47813 13.6685 7.5876 13.7701 8.7 13.7848V17.3848C6.98013 17.2194 5.48613 15.6447 4.63945 13.3529L5.38169 13.4808ZM9.3 13.7848C10.4123 13.7701 11.5216 13.6685 12.618 13.4808L13.3605 13.3523C12.5139 15.6447 11.0199 17.22 9.3 17.3845V13.7848ZM12.5158 12.8895C11.4532 13.0712 10.378 13.1694 9.3 13.1832V9.3H14.0955C14.0754 10.4539 13.9003 11.5997 13.575 12.7068L12.5158 12.8895ZM14.6952 8.7C14.6754 7.58657 14.5172 6.47988 14.2242 5.40542L16.7837 5.84707C17.1526 6.75483 17.3587 7.72061 17.3925 8.7H14.6952ZM16.4802 5.18584L14.0268 4.7625C13.5857 3.32358 12.7605 2.03218 11.6399 1.02744C13.7354 1.72676 15.4731 3.21958 16.4802 5.18584ZM6.36006 1.02744C5.23945 2.03218 4.41431 3.32358 3.97324 4.7625L1.51978 5.18584C2.52686 3.21958 4.2646 1.72676 6.36006 1.02744ZM1.51978 12.8142L3.97324 13.2375C4.41431 14.6764 5.23945 15.9678 6.36006 16.9726C4.2646 16.2732 2.52686 14.7804 1.51978 12.8142ZM11.6399 16.9726C12.7605 15.9678 13.5857 14.6764 14.0268 13.2375L16.4802 12.8142C15.4731 14.7804 13.7354 16.2732 11.6399 16.9726Z" fill="#939393"/>
</svg>
