<svg width="105" height="40" viewBox="0 0 105 40" fill="none" xmlns="http://www.w3.org/2000/svg">
<path d="M15.9785 32.4082C15.9785 31.2832 15.5801 30.416 14.7832 29.8066C13.998 29.1973 12.5742 28.582 10.5117 27.9609C8.44922 27.3398 6.80859 26.6484 5.58984 25.8867C3.25781 24.4219 2.0918 22.5117 2.0918 20.1562C2.0918 18.0938 2.92969 16.3945 4.60547 15.0586C6.29297 13.7227 8.47852 13.0547 11.1621 13.0547C12.9434 13.0547 14.5312 13.3828 15.9258 14.0391C17.3203 14.6953 18.416 15.6328 19.2129 16.8516C20.0098 18.0586 20.4082 19.4004 20.4082 20.877H15.9785C15.9785 19.541 15.5566 18.498 14.7129 17.748C13.8809 16.9863 12.6855 16.6055 11.127 16.6055C9.67383 16.6055 8.54297 16.916 7.73438 17.5371C6.9375 18.1582 6.53906 19.0254 6.53906 20.1387C6.53906 21.0762 6.97266 21.8613 7.83984 22.4941C8.70703 23.1152 10.1367 23.7246 12.1289 24.3223C14.1211 24.9082 15.7207 25.582 16.9277 26.3438C18.1348 27.0938 19.0195 27.9609 19.582 28.9453C20.1445 29.918 20.4258 31.0605 20.4258 32.373C20.4258 34.5059 19.6055 36.2051 17.9648 37.4707C16.3359 38.7246 14.1211 39.3516 11.3203 39.3516C9.46875 39.3516 7.76367 39.0117 6.20508 38.332C4.6582 37.6406 3.45117 36.6914 2.58398 35.4844C1.72852 34.2773 1.30078 32.8711 1.30078 31.2656H5.74805C5.74805 32.7188 6.22852 33.8438 7.18945 34.6406C8.15039 35.4375 9.52734 35.8359 11.3203 35.8359C12.8672 35.8359 14.0273 35.5254 14.8008 34.9043C15.5859 34.2715 15.9785 33.4395 15.9785 32.4082ZM24.9152 29.3145C24.9152 27.4512 25.2844 25.7754 26.0227 24.2871C26.7609 22.7871 27.798 21.6387 29.134 20.8418C30.4699 20.0332 32.0051 19.6289 33.7395 19.6289C36.3059 19.6289 38.3859 20.4551 39.9797 22.1074C41.5852 23.7598 42.4523 25.9512 42.5812 28.6816L42.5988 29.6836C42.5988 31.5586 42.2355 33.2344 41.509 34.7109C40.7941 36.1875 39.7629 37.3301 38.4152 38.1387C37.0793 38.9473 35.5324 39.3516 33.7746 39.3516C31.091 39.3516 28.9406 38.4609 27.3234 36.6797C25.718 34.8867 24.9152 32.502 24.9152 29.5254V29.3145ZM29.1867 29.6836C29.1867 31.6406 29.591 33.1758 30.3996 34.2891C31.2082 35.3906 32.3332 35.9414 33.7746 35.9414C35.216 35.9414 36.3352 35.3789 37.132 34.2539C37.9406 33.1289 38.3449 31.4824 38.3449 29.3145C38.3449 27.3926 37.9289 25.8691 37.0969 24.7441C36.2766 23.6191 35.1574 23.0566 33.7395 23.0566C32.3449 23.0566 31.2375 23.6133 30.4172 24.7266C29.5969 25.8281 29.1867 27.4805 29.1867 29.6836ZM52.5551 39H48.2836V12H52.5551V39ZM70.3863 39C70.1988 38.6367 70.0348 38.0449 69.8941 37.2246C68.5348 38.6426 66.8707 39.3516 64.902 39.3516C62.9918 39.3516 61.4332 38.8066 60.2262 37.7168C59.0191 36.627 58.4156 35.2793 58.4156 33.6738C58.4156 31.6465 59.1656 30.0938 60.6656 29.0156C62.1773 27.9258 64.3336 27.3809 67.1344 27.3809H69.7535V26.1328C69.7535 25.1484 69.4781 24.3633 68.9273 23.7773C68.3766 23.1797 67.5387 22.8809 66.4137 22.8809C65.441 22.8809 64.6441 23.127 64.023 23.6191C63.402 24.0996 63.0914 24.7148 63.0914 25.4648H58.8199C58.8199 24.4219 59.1656 23.4492 59.857 22.5469C60.5484 21.6328 61.4859 20.918 62.6695 20.4023C63.8648 19.8867 65.1949 19.6289 66.6598 19.6289C68.8863 19.6289 70.6617 20.1914 71.9859 21.3164C73.3102 22.4297 73.9898 24 74.025 26.0273V34.6055C74.025 36.3164 74.2652 37.6816 74.7457 38.7012V39H70.3863ZM65.693 35.9238C66.5367 35.9238 67.3277 35.7188 68.066 35.3086C68.816 34.8984 69.3785 34.3477 69.7535 33.6562V30.0703H67.4508C65.8688 30.0703 64.6793 30.3457 63.8824 30.8965C63.0855 31.4473 62.6871 32.2266 62.6871 33.2344C62.6871 34.0547 62.9566 34.7109 63.4957 35.2031C64.0465 35.6836 64.7789 35.9238 65.693 35.9238ZM90.2566 23.8828C89.6941 23.7891 89.1141 23.7422 88.5164 23.7422C86.5594 23.7422 85.241 24.4922 84.5613 25.9922V39H80.2898V19.9805H84.368L84.4734 22.1074C85.5047 20.4551 86.9344 19.6289 88.7625 19.6289C89.3719 19.6289 89.8758 19.7109 90.2742 19.875L90.2566 23.8828Z" fill="white"/>
<circle cx="97.5" cy="7.5" r="7.5" fill="#0075FF"/>
<path d="M94.6504 11V4.60156H96.8433C97.5669 4.60156 98.1177 4.74658 98.4956 5.03662C98.8735 5.32666 99.0625 5.75879 99.0625 6.33301C99.0625 6.62598 98.9834 6.88965 98.8252 7.12402C98.667 7.3584 98.4355 7.54004 98.1309 7.66895C98.4766 7.7627 98.7432 7.93994 98.9307 8.20068C99.1211 8.4585 99.2163 8.76904 99.2163 9.13232C99.2163 9.73291 99.0229 10.1943 98.6362 10.5166C98.2524 10.8389 97.7017 11 96.9839 11H94.6504ZM95.7622 8.11279V10.1123H96.9971C97.3457 10.1123 97.6182 10.0259 97.8145 9.85303C98.0107 9.68018 98.1089 9.43994 98.1089 9.13232C98.1089 8.46729 97.769 8.12744 97.0894 8.11279H95.7622ZM95.7622 7.29541H96.8521C97.1978 7.29541 97.4673 7.21777 97.6606 7.0625C97.8569 6.9043 97.9551 6.68164 97.9551 6.39453C97.9551 6.07812 97.8643 5.84961 97.6826 5.70898C97.5039 5.56836 97.2241 5.49805 96.8433 5.49805H95.7622V7.29541Z" fill="white"/>
</svg>
