<svg width="110" height="42" viewBox="0 0 110 42" fill="none" xmlns="http://www.w3.org/2000/svg">
<path d="M15.9785 32.8698C15.9785 31.7448 15.5801 30.8776 14.7832 30.2682C13.998 29.6588 12.5742 29.0436 10.5117 28.4225C8.44922 27.8014 6.80859 27.11 5.58984 26.3483C3.25781 24.8834 2.0918 22.9733 2.0918 20.6178C2.0918 18.5553 2.92969 16.8561 4.60547 15.5201C6.29297 14.1842 8.47852 13.5162 11.1621 13.5162C12.9434 13.5162 14.5312 13.8444 15.9258 14.5006C17.3203 15.1569 18.416 16.0944 19.2129 17.3131C20.0098 18.5201 20.4082 19.8619 20.4082 21.3385H15.9785C15.9785 20.0026 15.5566 18.9596 14.7129 18.2096C13.8809 17.4479 12.6855 17.067 11.127 17.067C9.67383 17.067 8.54297 17.3776 7.73438 17.9987C6.9375 18.6198 6.53906 19.4869 6.53906 20.6002C6.53906 21.5377 6.97266 22.3229 7.83984 22.9557C8.70703 23.5768 10.1367 24.1862 12.1289 24.7838C14.1211 25.3698 15.7207 26.0436 16.9277 26.8053C18.1348 27.5553 19.0195 28.4225 19.582 29.4069C20.1445 30.3795 20.4258 31.5221 20.4258 32.8346C20.4258 34.9674 19.6055 36.6666 17.9648 37.9323C16.3359 39.1862 14.1211 39.8131 11.3203 39.8131C9.46875 39.8131 7.76367 39.4733 6.20508 38.7936C4.6582 38.1022 3.45117 37.153 2.58398 35.9459C1.72852 34.7389 1.30078 33.3326 1.30078 31.7272H5.74805C5.74805 33.1803 6.22852 34.3053 7.18945 35.1022C8.15039 35.899 9.52734 36.2975 11.3203 36.2975C12.8672 36.2975 14.0273 35.9869 14.8008 35.3658C15.5859 34.733 15.9785 33.901 15.9785 32.8698ZM24.9152 29.776C24.9152 27.9127 25.2844 26.2369 26.0227 24.7487C26.7609 23.2487 27.798 22.1002 29.134 21.3033C30.4699 20.4948 32.0051 20.0905 33.7395 20.0905C36.3059 20.0905 38.3859 20.9166 39.9797 22.569C41.5852 24.2213 42.4523 26.4127 42.5812 29.1432L42.5988 30.1451C42.5988 32.0201 42.2355 33.6959 41.509 35.1725C40.7941 36.649 39.7629 37.7916 38.4152 38.6002C37.0793 39.4088 35.5324 39.8131 33.7746 39.8131C31.091 39.8131 28.9406 38.9225 27.3234 37.1412C25.718 35.3483 24.9152 32.9635 24.9152 29.9869V29.776ZM29.1867 30.1451C29.1867 32.1022 29.591 33.6373 30.3996 34.7506C31.2082 35.8522 32.3332 36.403 33.7746 36.403C35.216 36.403 36.3352 35.8405 37.132 34.7155C37.9406 33.5905 38.3449 31.944 38.3449 29.776C38.3449 27.8541 37.9289 26.3307 37.0969 25.2057C36.2766 24.0807 35.1574 23.5182 33.7395 23.5182C32.3449 23.5182 31.2375 24.0748 30.4172 25.1881C29.5969 26.2897 29.1867 27.942 29.1867 30.1451ZM52.5551 39.4615H48.2836V12.4615H52.5551V39.4615ZM70.3863 39.4615C70.1988 39.0983 70.0348 38.5065 69.8941 37.6862C68.5348 39.1041 66.8707 39.8131 64.902 39.8131C62.9918 39.8131 61.4332 39.2682 60.2262 38.1783C59.0191 37.0885 58.4156 35.7408 58.4156 34.1354C58.4156 32.108 59.1656 30.5553 60.6656 29.4772C62.1773 28.3873 64.3336 27.8424 67.1344 27.8424H69.7535V26.5944C69.7535 25.61 69.4781 24.8248 68.9273 24.2389C68.3766 23.6412 67.5387 23.3424 66.4137 23.3424C65.441 23.3424 64.6441 23.5885 64.023 24.0807C63.402 24.5612 63.0914 25.1764 63.0914 25.9264H58.8199C58.8199 24.8834 59.1656 23.9108 59.857 23.0084C60.5484 22.0944 61.4859 21.3795 62.6695 20.8639C63.8648 20.3483 65.1949 20.0905 66.6598 20.0905C68.8863 20.0905 70.6617 20.653 71.9859 21.778C73.3102 22.8912 73.9898 24.4615 74.025 26.4889V35.067C74.025 36.778 74.2652 38.1432 74.7457 39.1627V39.4615H70.3863ZM65.693 36.3854C66.5367 36.3854 67.3277 36.1803 68.066 35.7701C68.816 35.36 69.3785 34.8092 69.7535 34.1178V30.5319H67.4508C65.8688 30.5319 64.6793 30.8073 63.8824 31.358C63.0855 31.9088 62.6871 32.6881 62.6871 33.6959C62.6871 34.5162 62.9566 35.1725 63.4957 35.6647C64.0465 36.1451 64.7789 36.3854 65.693 36.3854ZM90.2566 24.3444C89.6941 24.2506 89.1141 24.2037 88.5164 24.2037C86.5594 24.2037 85.241 24.9537 84.5613 26.4537V39.4615H80.2898V20.442H84.368L84.4734 22.569C85.5047 20.9166 86.9344 20.0905 88.7625 20.0905C89.3719 20.0905 89.8758 20.1725 90.2742 20.3365L90.2566 24.3444Z" fill="black"/>
<circle cx="102.185" cy="7.5" r="7.5" fill="#0038FF"/>
<path d="M98.7227 11V3.89062H101.159C101.963 3.89062 102.575 4.05176 102.995 4.37402C103.415 4.69629 103.625 5.17643 103.625 5.81445C103.625 6.13997 103.537 6.43294 103.361 6.69336C103.186 6.95378 102.928 7.1556 102.59 7.29883C102.974 7.40299 103.27 7.59993 103.479 7.88965C103.69 8.17611 103.796 8.52116 103.796 8.9248C103.796 9.59212 103.581 10.1048 103.151 10.4629C102.725 10.821 102.113 11 101.315 11H98.7227ZM99.958 7.79199V10.0137H101.33C101.717 10.0137 102.02 9.91764 102.238 9.72559C102.456 9.53353 102.565 9.2666 102.565 8.9248C102.565 8.18587 102.188 7.80827 101.433 7.79199H99.958ZM99.958 6.88379H101.169C101.553 6.88379 101.853 6.79753 102.067 6.625C102.285 6.44922 102.395 6.20182 102.395 5.88281C102.395 5.53125 102.294 5.27734 102.092 5.12109C101.893 4.96484 101.582 4.88672 101.159 4.88672H99.958V6.88379Z" fill="white"/>
</svg>
