<svg width="10" height="21" viewBox="0 0 10 21" fill="black" xmlns="http://www.w3.org/2000/svg">
<path d="M9.40307 13.3162C9.27904 13.186 9.07749 13.186 8.95346 13.3162L4.99997 17.4755L1.03873 13.3162C0.914698 13.186 0.713148 13.186 0.589117 13.3162C0.465086 13.4465 0.465086 13.6581 0.589117 13.7883L4.76741 18.1755C4.82943 18.2407 4.90695 18.2732 4.99222 18.2732C5.06974 18.2732 5.15501 18.2407 5.21702 18.1755L9.39532 13.7883C9.5271 13.6581 9.5271 13.4465 9.40307 13.3162V13.3162Z" />
<path d="M9.40307 7.68376C9.27904 7.81399 9.07749 7.81399 8.95346 7.68376L4.99997 3.52446L1.03873 7.68376C0.914698 7.81399 0.713148 7.81399 0.589117 7.68376C0.465086 7.55353 0.465086 7.3419 0.589117 7.21167L4.76741 2.82446C4.82943 2.75934 4.90695 2.72678 4.99222 2.72678C5.06974 2.72678 5.15501 2.75934 5.21702 2.82446L9.39532 7.21167C9.5271 7.3419 9.5271 7.55353 9.40307 7.68376V7.68376Z" />
</svg>
