<svg width="28" height="30" viewBox="0 0 28 30" fill="#0038FF" xmlns="http://www.w3.org/2000/svg">
<path d="M10.4808 18.0718L10.4342 17.5739L10.1445 17.601L10.0249 17.8664L10.4808 18.0718ZM16.4309 17.5157L16.4774 18.0135L16.7712 17.9861L16.8892 17.7155L16.4309 17.5157ZM23.4237 2.36051C23.3228 2.10348 23.0326 1.97696 22.7756 2.07792L18.5871 3.7231C18.3301 3.82406 18.2035 4.11426 18.3045 4.37129C18.4055 4.62831 18.6957 4.75483 18.9527 4.65388L22.6758 3.19149L24.1382 6.91459C24.2391 7.17161 24.5293 7.29813 24.7863 7.19718C25.0434 7.09622 25.1699 6.80602 25.0689 6.54899L23.4237 2.36051ZM6.314 28.536L10.9366 18.2772L10.0249 17.8664L5.40228 28.1252L6.314 28.536ZM10.5273 18.5696L16.4774 18.0135L16.3843 17.0179L10.4342 17.5739L10.5273 18.5696ZM16.8892 17.7155L23.4167 2.74313L22.5 2.34349L15.9725 17.3159L16.8892 17.7155Z" />
</svg>
