<svg width="19" height="19" viewBox="0 0 19 19" fill="#0038FF" xmlns="http://www.w3.org/2000/svg">
<path d="M9.5 0C4.2617 0 0 4.26176 0 9.50006C0 14.7384 4.2617 19 9.5 19C14.7383 19 19 14.7384 19 9.50006C19 4.26176 14.7383 0 9.5 0ZM9.5 17.2727C5.21406 17.2727 1.72727 13.7859 1.72727 9.50006C1.72727 5.21418 5.21406 1.72727 9.5 1.72727C13.7859 1.72727 17.2727 5.21418 17.2727 9.50006C17.2727 13.7859 13.7859 17.2727 9.5 17.2727Z" />
<path d="M9.49992 4.03027C8.86509 4.03027 8.34863 4.54707 8.34863 5.1823C8.34863 5.81696 8.86509 6.3333 9.49992 6.3333C10.1347 6.3333 10.6512 5.81696 10.6512 5.1823C10.6512 4.54707 10.1347 4.03027 9.49992 4.03027Z" />
<path d="M9.49987 8.06055C9.02291 8.06055 8.63623 8.44722 8.63623 8.92418V14.106C8.63623 14.5829 9.02291 14.9696 9.49987 14.9696C9.97682 14.9696 10.3635 14.5829 10.3635 14.106V8.92418C10.3635 8.44722 9.97682 8.06055 9.49987 8.06055Z" />
</svg>
