<svg width="25" height="25" viewBox="0 0 25 25" fill="none" xmlns="http://www.w3.org/2000/svg">
<path d="M9.27734 12.1582C9.27734 12.0805 9.24648 12.006 9.19154 11.951C9.13659 11.8961 9.06208 11.8652 8.98438 11.8652H6.5918C6.5141 11.8652 6.43958 11.8961 6.38464 11.951C6.32969 12.006 6.29883 12.0805 6.29883 12.1582V16.1133C6.29883 16.191 6.32969 16.2655 6.38464 16.3204C6.43958 16.3754 6.5141 16.4062 6.5918 16.4062H8.98438C9.06208 16.4062 9.13659 16.3754 9.19154 16.3204C9.24648 16.2655 9.27734 16.191 9.27734 16.1133V12.1582ZM8.74023 15.7715H6.88477V12.4512H8.74023V15.7715Z" fill="#939393"/>
<path d="M4.3457 9.32617C4.3457 9.24847 4.31484 9.17395 4.25989 9.11901C4.20495 9.06407 4.13043 9.0332 4.05273 9.0332H1.66016C1.58246 9.0332 1.50794 9.06407 1.453 9.11901C1.39805 9.17395 1.36719 9.24847 1.36719 9.32617V16.0645C1.36719 16.1422 1.39805 16.2167 1.453 16.2716C1.50794 16.3266 1.58246 16.3574 1.66016 16.3574H4.05273C4.13043 16.3574 4.20495 16.3266 4.25989 16.2716C4.31484 16.2167 4.3457 16.1422 4.3457 16.0645V9.32617ZM3.80859 15.7715H1.95312V9.61914H3.80859V15.7715Z" fill="#939393"/>
<path d="M11.5688 6.45646C11.8328 6.73405 12.185 6.91144 12.5652 6.95842C12.9454 7.00539 13.3301 6.91902 13.6538 6.71404C13.9774 6.50906 14.22 6.19816 14.34 5.83436C14.4601 5.47055 14.4502 5.07636 14.3121 4.71901L16.2342 2.95739C16.4177 3.31892 16.7276 3.60051 17.105 3.74872C17.4824 3.89694 17.9011 3.90149 18.2816 3.76149C18.6621 3.6215 18.978 3.3467 19.1694 2.98924C19.3608 2.63178 19.4143 2.21651 19.3198 1.82221C19.2253 1.42792 18.9893 1.08202 18.6567 0.850139C18.3241 0.61826 17.918 0.516526 17.5153 0.564239C17.1127 0.611951 16.7415 0.80579 16.4723 1.10898C16.2031 1.41218 16.0546 1.80364 16.0548 2.2091C16.0548 2.24743 16.0566 2.28532 16.0592 2.32297L14.0003 4.21003C13.7386 3.91735 13.3814 3.72718 12.9924 3.67347C12.6035 3.61976 12.2082 3.70599 11.8769 3.91679C11.5457 4.12758 11.3001 4.44922 11.1841 4.8243C11.068 5.19937 11.089 5.60349 11.2433 5.96452L9.25883 7.63815C9.12138 7.3975 8.92568 7.19522 8.6897 7.0499C8.45372 6.90457 8.18502 6.82085 7.90825 6.80642C7.63149 6.79199 7.35553 6.84731 7.10572 6.96731C6.8559 7.0873 6.64023 7.26813 6.4785 7.49318L4.47274 6.0967C4.58428 5.69761 4.54247 5.27123 4.35555 4.90141C4.16863 4.53158 3.85012 4.24506 3.46264 4.09819C3.07516 3.95131 2.64675 3.95471 2.26165 4.10771C1.87656 4.26071 1.56263 4.55224 1.38159 4.92499C1.20056 5.29773 1.16553 5.72472 1.28337 6.12199C1.40122 6.51926 1.66343 6.85807 2.01844 7.0718C2.37345 7.28553 2.79557 7.35872 3.20181 7.27697C3.60804 7.19522 3.969 6.96446 4.21371 6.63005L6.22284 8.02902C6.15848 8.26622 6.1477 8.51476 6.19128 8.75663C6.23487 8.99851 6.33171 9.22766 6.47481 9.42747C6.61791 9.62729 6.80367 9.79276 7.01863 9.9119C7.23359 10.031 7.47236 10.1009 7.71765 10.1163C7.96293 10.1318 8.20858 10.0924 8.43679 10.0012C8.665 9.90997 8.87005 9.76911 9.03708 9.58882C9.20411 9.40853 9.32894 9.19334 9.40252 8.95885C9.4761 8.72435 9.49658 8.47642 9.46249 8.23303L11.5688 6.45646ZM17.7114 1.13849C17.9231 1.13848 18.1301 1.20127 18.3062 1.3189C18.4822 1.43653 18.6195 1.60374 18.7005 1.79936C18.7815 1.99499 18.8028 2.21025 18.7615 2.41793C18.7202 2.62561 18.6182 2.81638 18.4685 2.96611C18.3187 3.11585 18.128 3.21782 17.9203 3.25913C17.7126 3.30044 17.4974 3.27925 17.3017 3.19821C17.1061 3.11718 16.9389 2.97996 16.8212 2.8039C16.7036 2.62784 16.6408 2.42085 16.6408 2.2091C16.6411 1.92527 16.754 1.65316 16.9547 1.45246C17.1554 1.25175 17.4275 1.13884 17.7113 1.13849H17.7114ZM12.7666 4.24343C12.9783 4.24343 13.1853 4.30622 13.3614 4.42386C13.5374 4.5415 13.6747 4.7087 13.7557 4.90433C13.8367 5.09996 13.8579 5.31522 13.8166 5.5229C13.7753 5.73057 13.6733 5.92134 13.5236 6.07106C13.3739 6.22079 13.1831 6.32276 12.9755 6.36407C12.7678 6.40538 12.5525 6.38417 12.3569 6.30314C12.1613 6.22211 11.9941 6.08489 11.8764 5.90883C11.7588 5.73277 11.696 5.52578 11.696 5.31403C11.6963 5.03019 11.8092 4.75806 12.0099 4.55736C12.2106 4.35665 12.4827 4.24375 12.7666 4.24343V4.24343ZM2.87709 6.7236C2.66534 6.7236 2.45835 6.66081 2.28229 6.54317C2.10622 6.42553 1.969 6.25832 1.88797 6.06269C1.80694 5.86706 1.78574 5.65179 1.82706 5.44411C1.86837 5.23644 1.97034 5.04567 2.12007 4.89595C2.2698 4.74622 2.46057 4.64426 2.66825 4.60296C2.87593 4.56165 3.0912 4.58286 3.28682 4.6639C3.48245 4.74494 3.64965 4.88217 3.76729 5.05824C3.88492 5.2343 3.9477 5.4413 3.94769 5.65305C3.94736 5.93688 3.83445 6.20899 3.63375 6.40969C3.43304 6.61039 3.16092 6.72328 2.87709 6.7236V6.7236ZM7.82181 9.53122C7.61007 9.53122 7.40308 9.46843 7.22702 9.35079C7.05096 9.23315 6.91373 9.06594 6.8327 8.87032C6.75167 8.67469 6.73047 8.45943 6.77178 8.25175C6.81309 8.04407 6.91505 7.85331 7.06478 7.70358C7.21451 7.55385 7.40527 7.45189 7.61295 7.41058C7.82063 7.36927 8.03589 7.39047 8.23152 7.4715C8.42714 7.55253 8.59435 7.68976 8.71199 7.86582C8.82963 8.04188 8.89242 8.24887 8.89242 8.46061C8.89211 8.74446 8.77921 9.01659 8.5785 9.2173C8.37779 9.41801 8.10566 9.53091 7.82181 9.53122Z" fill="#939393"/>
<path d="M17.7596 13.5787C16.8005 13.5787 15.863 13.8631 15.0656 14.3959C14.2681 14.9288 13.6466 15.6861 13.2795 16.5722C12.9125 17.4582 12.8165 18.4333 13.0036 19.3739C13.1907 20.3146 13.6525 21.1786 14.3307 21.8568C15.0088 22.5349 15.8729 22.9968 16.8135 23.1839C17.7542 23.371 18.7292 23.275 19.6153 22.908C20.5013 22.5409 21.2587 21.9194 21.7915 21.122C22.3243 20.3245 22.6087 19.387 22.6087 18.4279C22.6073 17.1423 22.0959 15.9097 21.1869 15.0007C20.2778 14.0916 19.0452 13.5802 17.7596 13.5787V13.5787ZM17.7596 22.6911C16.9164 22.6911 16.0922 22.4411 15.3911 21.9727C14.69 21.5042 14.1436 20.8384 13.8209 20.0594C13.4982 19.2804 13.4138 18.4232 13.5783 17.5962C13.7427 16.7692 14.1488 16.0096 14.745 15.4134C15.3412 14.8171 16.1009 14.4111 16.9278 14.2466C17.7548 14.0821 18.612 14.1665 19.391 14.4892C20.17 14.8119 20.8359 15.3583 21.3043 16.0594C21.7728 16.7605 22.0228 17.5847 22.0228 18.4279C22.0215 19.5582 21.5719 20.6418 20.7727 21.441C19.9735 22.2402 18.8899 22.6898 17.7596 22.6911V22.6911Z" fill="#939393"/>
<path d="M17.7597 16.2305C18.0318 16.2308 18.2927 16.339 18.4852 16.5315C18.6776 16.7239 18.7858 16.9848 18.7861 17.2569C18.7861 17.3346 18.817 17.4092 18.8719 17.4641C18.9269 17.519 19.0014 17.5499 19.0791 17.5499C19.1575 17.5502 19.2329 17.5196 19.289 17.4648C19.345 17.41 19.3773 17.3353 19.3789 17.2569C19.3766 16.8818 19.2446 16.5191 19.0054 16.2302C18.7662 15.9413 18.4344 15.7441 18.0663 15.6719V15.2129C18.0663 15.1352 18.0354 15.0607 17.9805 15.0057C17.9255 14.9508 17.851 14.9199 17.7733 14.9199C17.6956 14.9199 17.6211 14.9508 17.5662 15.0057C17.5112 15.0607 17.4804 15.1352 17.4804 15.2129V15.6719C17.1068 15.7349 16.7679 15.9292 16.5248 16.2198C16.2817 16.5104 16.1502 16.8782 16.1541 17.2571C16.1539 17.6842 16.3232 18.094 16.6249 18.3963C16.9266 18.6986 17.336 18.8688 17.7631 18.8694C18.0353 18.8685 18.2967 18.9758 18.4898 19.1676C18.6829 19.3594 18.7919 19.62 18.7928 19.8922C18.7937 20.1644 18.6865 20.4258 18.4946 20.6189C18.3028 20.812 18.0422 20.921 17.77 20.9219C17.7668 20.9219 17.7633 20.9214 17.7602 20.9214C17.7572 20.9214 17.7538 20.9218 17.7505 20.9219C17.48 20.9192 17.2215 20.8099 17.0311 20.6178C16.8407 20.4258 16.7337 20.1664 16.7333 19.8959C16.7333 19.8182 16.7024 19.7437 16.6475 19.6887C16.5925 19.6338 16.518 19.6029 16.4403 19.6029C16.4022 19.6031 16.3645 19.6108 16.3294 19.6257C16.2943 19.6405 16.2625 19.6622 16.2359 19.6895C16.2092 19.7167 16.1883 19.749 16.1743 19.7845C16.1602 19.8199 16.1534 19.8578 16.1541 19.8959C16.1502 20.2748 16.2817 20.6426 16.5248 20.9332C16.7679 21.2238 17.1068 21.4181 17.4804 21.4811V22.0003C17.4804 22.078 17.5112 22.1525 17.5662 22.2075C17.6211 22.2624 17.6956 22.2933 17.7733 22.2933C17.851 22.2933 17.9255 22.2624 17.9805 22.2075C18.0354 22.1525 18.0663 22.078 18.0663 22.0003V21.4811C18.4612 21.4063 18.814 21.1868 19.0555 20.8655C19.297 20.5442 19.4098 20.1443 19.3719 19.7441C19.3339 19.344 19.1479 18.9724 18.8504 18.7023C18.5528 18.4321 18.1651 18.2827 17.7631 18.2835C17.6277 18.2846 17.4935 18.259 17.3681 18.208C17.2427 18.157 17.1286 18.0818 17.0324 17.9865C16.9362 17.8913 16.8598 17.7779 16.8075 17.653C16.7553 17.5281 16.7283 17.3942 16.7281 17.2588C16.7279 17.1234 16.7544 16.9893 16.8062 16.8642C16.858 16.7392 16.9341 16.6256 17.0299 16.53C17.1258 16.4345 17.2397 16.3588 17.3649 16.3074C17.4902 16.256 17.6243 16.2299 17.7597 16.2306V16.2305Z" fill="#939393"/>
<path d="M19.1895 12.5858V5.86626C19.1895 5.70449 19.0808 5.56641 18.919 5.56641H16.504C16.4256 5.56801 16.351 5.60033 16.2962 5.65641C16.2414 5.71249 16.2108 5.78785 16.211 5.86626V12.611C15.5111 12.798 14.8498 13.1076 14.2579 13.5254V8.95894C14.2579 8.79712 14.1361 8.64258 13.9743 8.64258H11.5594C11.3976 8.64258 11.2794 8.79712 11.2794 8.95894V16.0878C11.2784 16.1244 11.2851 16.1608 11.2989 16.1946C11.3128 16.2284 11.3336 16.259 11.3599 16.2844C11.3863 16.3098 11.4176 16.3293 11.4519 16.3419C11.4863 16.3545 11.5229 16.3598 11.5594 16.3574H12.0977C11.8624 17.0184 11.7416 17.7147 11.7403 18.4163C11.7403 21.7355 14.4405 24.4417 17.7599 24.4417C21.0793 24.4417 23.7682 21.7441 23.7682 18.425C23.7672 17.08 23.3157 15.7742 22.4858 14.7158C21.6559 13.6574 20.4954 12.9076 19.1895 12.5858ZM16.797 6.15234H18.6036V12.4709C18.3207 12.4279 18.0348 12.407 17.7486 12.4084C17.4298 12.4074 17.1114 12.4333 16.797 12.4858V6.15234ZM11.8653 9.22852H13.672V14.0011C13.1353 14.5141 12.6873 15.1123 12.3459 15.7715H11.8653V9.22852ZM17.7599 23.8615C16.6853 23.8615 15.6347 23.5428 14.7412 22.9458C13.8476 22.3487 13.1512 21.5001 12.7399 20.5073C12.3286 19.5144 12.221 18.4219 12.4307 17.3679C12.6403 16.3139 13.1578 15.3457 13.9177 14.5858C14.6775 13.8259 15.6457 13.3084 16.6997 13.0987C17.7537 12.889 18.8462 12.9966 19.8391 13.4079C20.832 13.8191 21.6806 14.5155 22.2777 15.409C22.8747 16.3026 23.1934 17.3531 23.1935 18.4277C23.1919 19.8683 22.6189 21.2495 21.6003 22.2681C20.5816 23.2868 19.2005 23.8598 17.7599 23.8615V23.8615Z" fill="#939393"/>
</svg>
