<svg width="11" height="11" viewBox="0 0 11 11" fill="none" xmlns="http://www.w3.org/2000/svg">
<path d="M6.1875 6.875C8.08584 6.875 9.625 5.33601 9.625 3.4375C9.625 1.53899 8.08584 0 6.1875 0C6.18716 0 6.18716 0 6.18683 0H2.52072C2.39415 0 2.29178 0.102545 2.29178 0.229109V6.41644H1.60428C1.47772 6.41644 1.375 6.51915 1.375 6.64606C1.375 6.77228 1.47772 6.875 1.60428 6.875H2.29178V7.79144H1.60428C1.47772 7.79144 1.375 7.89415 1.375 8.02106C1.375 8.14728 1.47772 8.25 1.60428 8.25H2.29178V10.7711C2.29178 10.8973 2.39418 11 2.52072 11C2.64726 11 2.75 10.8973 2.75 10.7711V8.25H6.64572C6.77228 8.25 6.875 8.14728 6.875 8.02106C6.875 7.89418 6.77228 7.79144 6.64572 7.79144H2.75V6.875H6.1875ZM2.75 0.458391H6.18683H6.1875C6.58999 0.458391 6.98008 0.537109 7.34699 0.692205C7.70183 0.842252 8.0204 1.0571 8.29398 1.33087C8.5679 1.60462 8.78275 1.92337 8.9328 2.27803C9.08789 2.64492 9.16678 3.03516 9.16678 3.4375C9.16678 3.83984 9.08789 4.23008 8.9328 4.59699C8.78275 4.95165 8.5679 5.2704 8.29398 5.54415C8.0204 5.8179 7.70183 6.03275 7.34699 6.18282C6.98008 6.33789 6.58999 6.41644 6.1875 6.41644H2.75V0.458391Z" fill="white"/>
</svg>
