<svg width="43" height="43" viewBox="0 0 43 43" fill="#0038FF" xmlns="http://www.w3.org/2000/svg">
<g clip-path="url(#clip0)">
<path d="M24.8967 21.1724C24.1071 18.8298 21.5679 17.5708 19.2253 18.3605C17.0296 19.1006 15.7617 21.3938 16.3025 23.6469C17.9139 29.2493 23.8081 34.2769 29.2064 38.549C29.5941 38.856 30.1571 38.7907 30.4642 38.403C30.7712 38.0153 30.7059 37.4523 30.3183 37.1452C25.1366 33.045 19.4877 28.2447 18.0231 23.1526C17.6132 21.7262 18.4373 20.2376 19.8637 19.8277C21.2902 19.4178 22.7787 20.2419 23.1886 21.6683C24.1662 25.0702 29.0274 29.2743 33.6522 32.934C34.0398 33.241 34.6029 33.1757 34.91 32.788C35.217 32.4004 35.1517 31.8373 34.7641 31.5302C32.3219 29.6019 25.8547 24.4847 24.8967 21.1724Z" />
<path d="M31.6827 18.8645C29.7364 12.8972 23.4306 9.52635 17.3875 11.2227C11.2093 12.9954 7.63799 19.4411 9.41081 25.6193C9.41207 25.6237 9.41333 25.6281 9.41459 25.6325C10.8846 30.7389 7.73333 32.1551 6.72888 32.4667C6.2572 32.615 5.99509 33.1176 6.14339 33.5893C6.29169 34.061 6.79434 34.3231 7.26602 34.1748C10.0037 33.319 12.6625 30.4399 11.1352 25.1365C9.62953 19.9103 12.6456 14.4532 17.8716 12.9475C17.8744 12.9468 17.8772 12.9459 17.8799 12.9452C23.0472 11.4927 28.431 14.4212 30.0193 19.5484C30.0404 19.6182 30.0706 19.6851 30.1088 19.7472C30.2019 19.9012 30.3935 20.2252 36.1481 24.8947C36.5317 25.2067 37.0957 25.1486 37.4077 24.7649C37.7196 24.3813 37.6616 23.8173 37.2778 23.5053C35.1866 21.808 32.1303 19.2852 31.6827 18.8645Z" />
<path d="M28.3416 20.1822C27.1051 15.9123 22.6487 13.446 18.374 14.6657C14.1767 15.9616 11.7405 20.3292 12.8432 24.5814C14.6516 32.8175 13.2998 34.719 9.5899 35.8792C9.11822 36.0275 8.85611 36.5302 9.00441 37.0018C9.15272 37.4735 9.65536 37.7356 10.127 37.5873C15.3105 35.9759 16.4367 32.5883 14.6032 24.1964C13.7125 20.8688 15.5957 17.4289 18.8789 16.3863C22.2056 15.4419 25.6705 17.3619 26.6334 20.6835C26.9915 21.9045 27.9423 23.5804 35.2743 29.3834C35.6619 29.6904 36.225 29.6251 36.5321 29.2375C36.8391 28.8498 36.7738 28.2867 36.3862 27.9796C29.731 22.7157 28.5922 21.0488 28.3416 20.1822Z" />
<path d="M30.8053 32.6439C27.7758 30.3449 22.7052 26.499 21.4573 22.1625C21.3126 21.6897 20.8119 21.4237 20.3392 21.5685C19.878 21.7097 19.6115 22.1909 19.7366 22.6567C21.1475 27.5661 26.5153 31.6377 29.722 34.0709C30.3737 34.5402 31.0012 35.0422 31.602 35.5749C31.9576 35.9184 32.5244 35.9086 32.8679 35.553C33.203 35.2061 33.203 34.656 32.8679 34.3091C32.2123 33.7157 31.5236 33.1597 30.8053 32.6439Z" />
<path d="M25.9603 38.8712C25.0555 37.1926 23.3888 36.0605 21.4949 35.8381C18.4511 35.8381 17.9802 41.0126 17.9139 42.0493C17.8833 42.5427 18.2584 42.9675 18.7519 42.9982H18.8092C19.2827 42.9992 19.6751 42.6311 19.7045 42.1585C19.8173 40.3144 20.5227 37.6287 21.4949 37.6287C22.8216 37.6287 23.7634 38.9071 24.519 39.933C24.7686 40.2889 25.042 40.6274 25.3372 40.9464C25.6928 41.29 26.2596 41.2801 26.6031 40.9245C26.9383 40.5775 26.9383 40.0275 26.6031 39.6805C26.3716 39.425 26.1568 39.1547 25.9603 38.8712Z" />
<path d="M17.8728 31.0898C17.7045 30.6249 17.1912 30.3844 16.7263 30.5527C16.2891 30.711 16.0458 31.1778 16.1665 31.6269C16.9329 34.0208 15.427 38.719 13.1621 39.4548C12.6903 39.6026 12.4275 40.1048 12.5751 40.5766C12.7229 41.0485 13.2251 41.3113 13.6969 41.1636C13.7031 41.1617 13.7093 41.1597 13.7154 41.1576C17.1602 40.0475 18.8217 34.0638 17.8728 31.0898Z" />
<path d="M36.9896 18.8716C35.8706 18.5135 34.9914 17.0812 33.9726 15.4464C31.8169 11.9621 28.8608 7.19055 20.5996 7.19055C12.1984 7.20046 5.39037 14.0085 5.38055 22.4096C5.38055 22.9041 5.7814 23.3049 6.27582 23.3049C6.77024 23.3049 7.17108 22.9041 7.17108 22.4096C7.17897 14.9965 13.1865 8.98897 20.5996 8.98108C27.8636 8.98108 30.4079 13.0885 32.4526 16.39C33.6558 18.3327 34.6943 20.0104 36.4382 20.5761C36.9068 20.734 37.4145 20.4821 37.5724 20.0137C37.7303 19.5451 37.4784 19.0373 37.0099 18.8794C37.0038 18.8773 36.9977 18.8754 36.9915 18.8734L36.9896 18.8716Z" />
<path d="M7.17102 29.5715C7.66545 29.5715 8.06629 29.1706 8.0662 28.6762C8.0662 28.537 8.03372 28.3997 7.97136 28.2752C7.58932 27.5591 7.31932 26.7886 7.17102 25.9906C7.17102 25.4962 6.77018 25.0953 6.27576 25.0953C5.78134 25.0953 5.38049 25.4962 5.38049 25.9906C5.52418 27.0703 5.85956 28.1156 6.3706 29.0774C6.52251 29.3802 6.83229 29.5715 7.17102 29.5715Z" />
<path d="M6.70555 10.6408C7.12771 10.8981 7.67861 10.7646 7.93594 10.3424C7.93644 10.3416 7.93695 10.3409 7.93737 10.34C8.71446 9.058 12.5424 5.40007 19.7044 5.40007C26.5869 5.40007 31.4839 8.88612 32.3666 10.34C32.6232 10.7628 33.1739 10.8974 33.5967 10.6408C34.0194 10.3842 34.154 9.8335 33.8975 9.41075C32.6692 7.38749 27.2459 3.60962 19.7044 3.60962C11.6849 3.60962 7.38596 7.79757 6.40475 9.41252C6.14919 9.83485 6.28381 10.3843 6.70555 10.6408Z" />
<path d="M12.0053 3.53081C12.4153 3.35179 12.7627 3.17269 13.0921 2.99367C14.4386 2.31511 15.4072 1.81909 19.7043 1.81909C22.6058 1.6592 25.5079 2.12383 28.2144 3.18167C28.5564 3.30882 28.9002 3.43589 29.2601 3.55943C29.3539 3.59199 29.4525 3.60895 29.5519 3.60953C30.0463 3.61046 30.4479 3.21037 30.4488 2.71595C30.4494 2.33273 30.2062 1.99165 29.8437 1.86743C29.4964 1.7475 29.1669 1.62572 28.8375 1.50931C25.932 0.37619 22.8192 -0.128472 19.7044 0.028642C14.9704 0.028642 13.7851 0.637375 12.2811 1.4091C11.9785 1.56487 11.6563 1.72962 11.2803 1.8979C10.8208 2.08053 10.5964 2.60105 10.779 3.06047C10.9616 3.5199 11.4821 3.74432 11.9415 3.56178C11.965 3.55246 11.9881 3.54214 12.0107 3.53081H12.0053Z" />
<path d="M35.8598 15.5198C36.0281 15.9847 36.5414 16.2252 37.0063 16.0569C37.4435 15.8986 37.6869 15.4318 37.5661 14.9827C37.0581 13.6674 36.4281 12.4026 35.6843 11.2048C35.4252 10.7836 34.8737 10.6521 34.4525 10.9111C34.0313 11.1702 33.8997 11.7217 34.1588 12.143C34.8253 13.2157 35.3946 14.3458 35.8598 15.5198Z" />
<path d="M29.7561 38.7422C29.5546 38.7421 29.359 38.6739 29.2011 38.5489C23.8028 34.275 17.9139 29.2492 16.3025 23.6468C15.7255 21.2429 17.2065 18.8265 19.6104 18.2495C21.8634 17.7087 24.1567 18.9766 24.8968 21.1723C25.8493 24.4829 32.3165 29.6018 34.7444 31.5284C35.1414 31.8231 35.2244 32.3838 34.9298 32.7808C34.6351 33.1778 34.0744 33.2609 33.6774 32.9662C33.6627 32.9553 33.6483 32.9439 33.6342 32.9321C29.0095 29.2724 24.1447 25.0701 23.169 21.6665C22.759 20.2405 21.2708 19.4169 19.845 19.8268C18.419 20.2367 17.5953 21.7249 18.0053 23.1507C19.4699 28.2429 25.1188 33.0431 30.2987 37.1433C30.6863 37.4502 30.7517 38.0133 30.4448 38.4009C30.2748 38.6157 30.0158 38.7407 29.7418 38.7404L29.7561 38.7422Z" />
<path d="M6.99204 34.2106C6.49761 34.2096 6.09753 33.8081 6.09845 33.3137C6.09912 32.9233 6.35284 32.5783 6.72531 32.4612C7.72616 32.1479 10.8774 30.7316 9.41102 25.627C7.63426 19.45 11.2014 13.0021 17.3784 11.2253C17.3815 11.2245 17.3846 11.2235 17.3876 11.2227C23.4313 9.52517 29.7382 12.8962 31.6845 18.8645C32.1304 19.2835 35.1867 21.808 37.278 23.5054C37.6521 23.8285 37.6935 24.3939 37.3704 24.7681C37.061 25.1263 36.5263 25.1818 36.15 24.8948C30.3936 20.2235 30.202 19.8994 30.1089 19.7454C30.0719 19.6835 30.0424 19.6173 30.0212 19.5484C28.4329 14.4203 23.0479 11.4915 17.88 12.9452C12.6528 14.4471 9.63285 19.9021 11.1347 25.1292C11.1349 25.1298 11.1351 25.1305 11.1352 25.1311C12.6607 30.4327 10.0036 33.3135 7.26422 34.1694C7.17618 34.1972 7.08436 34.2111 6.99204 34.2106Z" />
<path d="M9.85672 37.6285C9.3623 37.6276 8.96221 37.2261 8.96314 36.7317C8.96381 36.3412 9.21752 35.9963 9.59 35.8792C13.2999 34.719 14.6499 32.8139 12.8415 24.5813C11.7397 20.3293 14.1755 15.9623 18.3723 14.6657C22.6471 13.4491 27.1018 15.9141 28.3416 20.1821C28.5905 21.0469 29.7275 22.7139 36.3719 27.9743C36.769 28.269 36.852 28.8297 36.5573 29.2267C36.2626 29.6238 35.7019 29.7068 35.3049 29.4121C35.2902 29.4012 35.2758 29.3898 35.2618 29.378C27.9208 23.5733 26.9701 21.8956 26.6209 20.6781C25.6615 17.353 22.1924 15.4311 18.8646 16.3809C15.5777 17.4243 13.6944 20.8699 14.5907 24.2C16.4331 32.5937 15.3069 35.9724 10.1146 37.5909C10.031 37.6162 9.94409 37.6289 9.85672 37.6285Z" />
<path d="M32.2377 35.8381C32.0001 35.8386 31.772 35.7446 31.6038 35.5767C31.0028 35.0435 30.3754 34.541 29.7238 34.071C26.5171 31.6377 21.1493 27.5662 19.7384 22.6567C19.5937 22.1839 19.8595 21.6834 20.3323 21.5386C20.8051 21.3939 21.3056 21.6598 21.4504 22.1325C21.4534 22.1424 21.4563 22.1524 21.459 22.1624C22.7123 26.4989 27.7758 30.3449 30.8053 32.6438C31.524 33.1605 32.2132 33.7169 32.8696 34.3107C33.2187 34.6609 33.2179 35.2277 32.8676 35.5768C32.7004 35.7437 32.4739 35.8376 32.2377 35.8381Z" />
<path d="M18.8091 43H18.7518C18.2584 42.9692 17.8832 42.5444 17.9139 42.051C17.9783 41.0143 18.451 35.8398 21.4948 35.8398C23.3927 36.0605 25.0636 37.1933 25.971 38.8747C26.1663 39.1585 26.3804 39.4289 26.612 39.684C26.9555 40.0396 26.9456 40.6064 26.59 40.9499C26.243 41.285 25.693 41.285 25.3461 40.9499C25.0502 40.6321 24.7769 40.294 24.5278 39.9383C23.7651 38.907 22.8233 37.6286 21.4948 37.6286C20.5243 37.6286 19.8171 40.3143 19.7043 42.1603C19.675 42.6328 19.2826 43.0009 18.8091 43Z" />
<path d="M13.4377 41.2095C12.9433 41.2105 12.5417 40.8105 12.5408 40.316C12.54 39.9265 12.7912 39.5813 13.162 39.4621C15.4251 38.7262 16.922 34.028 16.1664 31.6341C15.9894 31.1725 16.2202 30.6548 16.6818 30.4778C17.1434 30.3008 17.6612 30.5316 17.8382 30.9932C17.8512 31.0271 17.8621 31.0618 17.8709 31.097C18.8216 34.071 17.1547 40.0494 13.7134 41.1738C13.624 41.2 13.531 41.2121 13.4377 41.2095Z" />
<path d="M6.27582 23.3048C5.7814 23.3048 5.38055 22.904 5.38055 22.4096C5.39046 14.0084 12.1984 7.20037 20.5996 7.19055C28.8608 7.19055 31.8168 11.9621 33.9744 15.4464C34.9932 17.0883 35.8723 18.5081 36.9914 18.8716C37.4632 19.0194 37.726 19.5216 37.5784 19.9934C37.4307 20.4653 36.9284 20.7281 36.4566 20.5804C36.4504 20.5785 36.4442 20.5765 36.4381 20.5744C34.6942 20.0086 33.6557 18.3309 32.4525 16.3883C30.4078 13.0885 27.8636 8.98108 20.5996 8.98108C13.1864 8.98897 7.17889 14.9965 7.171 22.4096C7.171 22.904 6.77024 23.3048 6.27582 23.3048Z" />
<path d="M7.171 29.5715C6.83159 29.5721 6.52097 29.3808 6.3689 29.0773C5.85802 28.1156 5.52332 27.0701 5.38055 25.9905C5.38055 25.4961 5.7814 25.0952 6.27582 25.0952C6.77024 25.0952 7.17108 25.4961 7.17108 25.9905C7.3198 26.7884 7.58972 27.5589 7.97142 28.2751C8.19291 28.7172 8.01414 29.2551 7.57209 29.4765C7.44754 29.539 7.31024 29.5715 7.171 29.5715Z" />
<path d="M33.1329 10.7715C32.8196 10.7717 32.5289 10.608 32.3666 10.34C31.4857 8.88612 26.5869 5.40007 19.7044 5.40007C12.5425 5.40007 8.71446 9.058 7.9356 10.34C7.69439 10.7716 7.14894 10.9259 6.71738 10.6846C6.28582 10.4434 6.13148 9.89796 6.37277 9.4664C6.38335 9.44743 6.39468 9.42888 6.4066 9.41075C7.38596 7.79757 11.6849 3.60962 19.7045 3.60962C27.246 3.60962 32.6693 7.38749 33.8975 9.41252C34.1537 9.83543 34.0184 10.3859 33.5955 10.642C33.4559 10.7265 33.296 10.7713 33.1329 10.7715Z" />
<path d="M29.5519 3.60962C29.4527 3.60979 29.354 3.5935 29.2601 3.56128C28.902 3.43773 28.5547 3.30882 28.2127 3.18351C25.5068 2.12551 22.6054 1.66021 19.7044 1.81917C15.4072 1.81917 14.4386 2.31511 13.1011 3.00088C12.7717 3.17101 12.4226 3.34826 12.0143 3.53803C11.5615 3.73828 11.0319 3.53349 10.8317 3.08053C10.6314 2.62765 10.8362 2.09815 11.2892 1.8979C11.667 1.72777 11.9875 1.56311 12.2919 1.40733C13.7851 0.637458 14.9722 0.0286413 19.7044 0.0286413C22.8183 -0.130151 25.9304 0.372664 28.8359 1.50402C29.1653 1.6258 29.4948 1.74934 29.8421 1.86214C30.3128 2.01321 30.572 2.51737 30.4209 2.98813C30.3001 3.3643 29.947 3.61692 29.5519 3.60962Z" />
<path d="M36.7138 16.1429C36.3245 16.1426 35.98 15.8907 35.8615 15.5198C35.3964 14.3434 34.8272 13.2109 34.1606 12.1358C33.9015 11.7145 34.0329 11.1631 34.4542 10.904C34.8755 10.6449 35.427 10.7763 35.686 11.1976C36.4291 12.3955 37.0585 13.6603 37.566 14.9755C37.7164 15.4465 37.4563 15.9503 36.9853 16.1005C36.8976 16.1285 36.806 16.1429 36.7138 16.1429Z" />
</g>
<defs>
<clipPath id="clip0">
<rect width="43" height="43" fill="white"/>
</clipPath>
</defs>
</svg>
