<svg width="14" height="14" viewBox="0 0 14 14" fill="none" xmlns="http://www.w3.org/2000/svg">
<g clip-path="url(#clip0)">
<path d="M13.8579 5.57492L10.6323 6.43913C10.6592 6.61815 10.6732 6.80133 10.6732 6.98782C10.6732 7.853 10.3723 8.64928 9.86987 9.27765L12.2312 11.6389C13.3746 10.3562 14.0001 8.7202 14.0001 6.98782C14.0001 6.5076 13.9517 6.03485 13.8579 5.57492Z" fill="#939393"/>
<path d="M9.28978 9.85764C8.66141 10.3601 7.86523 10.661 6.99995 10.661C6.47765 10.661 5.98055 10.5512 5.53023 10.3538L3.85938 13.2476C4.82196 13.7317 5.89125 13.9878 6.99995 13.9878C8.73233 13.9878 10.3684 13.3623 11.6511 12.2189L9.28978 9.85764Z" fill="#939393"/>
<path d="M4.82048 9.94257C4.52515 9.72414 4.26367 9.46266 4.04524 9.16733L1.15161 10.838C1.41063 11.2295 1.71066 11.5979 2.05022 11.9375C2.38977 12.2771 2.75827 12.5772 3.14984 12.8361L4.82048 9.94257Z" fill="#939393"/>
<path d="M3.63405 8.45753C3.43666 8.00722 3.32686 7.51012 3.32686 6.98781C3.32686 6.12253 3.62775 5.32635 4.13019 4.69798L1.76891 2.3367C0.625488 3.6194 0 5.25543 0 6.98781C0 8.09651 0.256027 9.1658 0.740097 10.1283L3.63405 8.45753Z" fill="#939393"/>
<path d="M4.71016 4.1179C5.23781 3.696 5.88391 3.41647 6.58983 3.33765V0C5.01041 0.090683 3.52989 0.703888 2.34888 1.75662L4.71016 4.1179Z" fill="#939393"/>
<path d="M7.41016 3.33765C8.11607 3.41647 8.76207 3.696 9.28983 4.1179L11.6511 1.75662C10.4701 0.703888 8.98958 0.090683 7.41016 0V3.33765Z" fill="#939393"/>
<path d="M9.86987 4.69798C10.0977 4.98285 10.2842 5.30211 10.4197 5.6469L13.6472 4.78204C13.3508 3.886 12.8723 3.05586 12.2312 2.3367L9.86987 4.69798Z" fill="#939393"/>
</g>
<defs>
<clipPath id="clip0">
<rect width="14" height="14" fill="white"/>
</clipPath>
</defs>
</svg>
