<svg width="18" height="18" viewBox="0 0 18 18" fill="none" xmlns="http://www.w3.org/2000/svg">
<g clip-path="url(#clip0)">
<path d="M17.8172 7.16776L13.67 8.27888C13.7046 8.50905 13.7225 8.74457 13.7225 8.98434C13.7225 10.0967 13.3357 11.1205 12.6897 11.9284L15.7256 14.9643C17.1957 13.3152 17.9999 11.2117 17.9999 8.98434C17.9999 8.36691 17.9377 7.75909 17.8172 7.16776V7.16776Z" fill="#939393"/>
<path d="M11.9441 12.6741C11.1362 13.3201 10.1125 13.707 9.00005 13.707C8.32851 13.707 7.68938 13.5658 7.1104 13.312L4.96216 17.0327C6.19977 17.655 7.57457 17.9843 9.00005 17.9843C11.2274 17.9843 13.3309 17.1801 14.98 15.71L11.9441 12.6741Z" fill="#939393"/>
<path d="M6.19783 12.7833C5.81812 12.5025 5.48193 12.1663 5.2011 11.7866L1.48071 13.9345C1.81374 14.438 2.19949 14.9116 2.63606 15.3482C3.07263 15.7849 3.54642 16.1707 4.04987 16.5035L6.19783 12.7833Z" fill="#939393"/>
<path d="M4.67235 10.874C4.41856 10.295 4.27739 9.65587 4.27739 8.98433C4.27739 7.87183 4.66425 6.84817 5.31024 6.04027L2.27431 3.00433C0.804199 4.65352 0 6.75699 0 8.98433C0 10.4098 0.329178 11.7846 0.951553 13.0221L4.67235 10.874Z" fill="#939393"/>
<path d="M6.05595 5.29445C6.73436 4.752 7.56506 4.39261 8.47267 4.29126V0C6.44198 0.116592 4.53847 0.904999 3.02002 2.25851L6.05595 5.29445Z" fill="#939393"/>
<path d="M9.52734 4.29126C10.435 4.39261 11.2655 4.752 11.9441 5.29445L14.98 2.25851C13.4615 0.904999 11.558 0.116592 9.52734 0V4.29126Z" fill="#939393"/>
<path d="M12.6897 6.04027C12.9826 6.40652 13.2224 6.817 13.3967 7.2603L17.5462 6.14835C17.1651 4.99629 16.55 3.92897 15.7256 3.00433L12.6897 6.04027Z" fill="#939393"/>
</g>
<defs>
<clipPath id="clip0">
<rect width="18" height="18" fill="white"/>
</clipPath>
</defs>
</svg>
