<svg width="23" height="23" viewBox="0 0 23 23" fill="#939393" xmlns="http://www.w3.org/2000/svg">
<g clip-path="url(#clip0)">
<path d="M23.0077 4.57715C22.9353 4.36412 22.7517 4.21374 22.5287 4.18479L20.8338 3.96369C21.0956 3.47832 21.022 2.85819 20.6128 2.44898C20.3709 2.20682 20.0492 2.07363 19.707 2.07363C19.7067 2.07363 19.7063 2.07363 19.7061 2.07363C19.5056 2.07381 19.3124 2.11996 19.1378 2.20664L18.9167 0.510842C18.8876 0.287636 18.7372 0.104088 18.5243 0.0316163C18.3113 -0.0406799 18.0802 0.0130158 17.921 0.172173L15.5047 2.58848C15.3721 2.72114 15.3106 2.91083 15.3405 3.09596L15.7314 5.52876L15.6197 5.64089C13.9367 4.34342 11.885 3.64011 9.72489 3.64011C7.69481 3.64011 5.75141 4.26164 4.10491 5.43769C3.9533 5.54595 3.91821 5.75653 4.02648 5.90814C4.13474 6.05975 4.34532 6.09484 4.49693 5.98658C6.02831 4.89266 7.83624 4.31446 9.72489 4.31446C11.7541 4.31446 13.6284 4.98952 15.1357 6.12625L13.7668 7.49971C12.6195 6.70041 11.2261 6.23084 9.72489 6.23084C5.81598 6.23084 2.63583 9.41099 2.63583 13.3201C2.63583 17.229 5.81598 20.4091 9.72489 20.4091C13.6338 20.4091 16.814 17.229 16.814 13.3201C16.814 11.8359 16.3551 10.4574 15.5725 9.31764L16.9433 7.94208C18.0651 9.44398 18.7303 11.3056 18.7303 13.3201C18.7303 18.2857 14.6905 22.3255 9.72489 22.3255C4.75926 22.3255 0.719452 18.2857 0.719452 13.3201C0.719452 11.0994 1.53454 8.96651 3.01468 7.31405C3.13892 7.17543 3.12716 6.96205 2.98853 6.83781C2.84973 6.71357 2.63653 6.72533 2.51229 6.86396C0.921074 8.6403 0.0449219 10.9331 0.0449219 13.3201C0.0449219 15.9057 1.0518 18.3366 2.88009 20.1649C4.70838 21.9932 7.13925 23 9.72489 23C12.3105 23 14.7414 21.9932 16.5697 20.1649C18.398 18.3366 19.4049 15.9057 19.4049 13.3201C19.4049 11.1731 18.7098 9.13339 17.4276 7.45636L17.5132 7.37038L19.9434 7.76099C19.9743 7.7659 20.0052 7.76836 20.036 7.76836C20.1901 7.76836 20.3405 7.70729 20.451 7.59674L20.9698 7.07804C21.1015 6.94625 21.1015 6.73288 20.9698 6.60109C20.838 6.46949 20.6246 6.46949 20.4928 6.60109L20.006 7.08786L18.1098 6.78306L20.3165 4.57645L22.2635 4.83036L21.971 5.12288C21.8394 5.25466 21.8394 5.46804 21.971 5.59983C22.1028 5.73143 22.3164 5.73143 22.448 5.59983L22.8674 5.18044C23.0263 5.02128 23.0802 4.79018 23.0077 4.57715V4.57715ZM18.2709 0.775986L18.525 2.72307L16.3182 4.92968L16.0134 3.03349L18.2709 0.775986ZM16.1394 13.3201C16.1394 16.857 13.262 19.7346 9.72489 19.7346C6.18782 19.7346 3.31036 16.857 3.31036 13.3201C3.31036 9.783 6.18782 6.90554 9.72489 6.90554C11.0403 6.90554 12.264 7.30352 13.2828 7.98525L11.8829 9.38994C11.2422 9.03653 10.5068 8.83473 9.72489 8.83473C7.25173 8.83473 5.23972 10.8469 5.23972 13.3201C5.23972 15.7931 7.25173 17.8052 9.72489 17.8052C12.198 17.8052 14.2101 15.7931 14.2101 13.3201C14.2101 12.5589 14.0188 11.8419 13.6829 11.2133L15.0876 9.80388C15.7523 10.8145 16.1394 12.0228 16.1394 13.3201V13.3201ZM9.09791 13.9958C9.33989 14.2378 9.66172 14.371 10.0039 14.371H10.0048C10.3473 14.3708 10.6691 14.2371 10.9111 13.9944L11.3891 13.5149C11.2922 14.3475 10.583 14.9959 9.72489 14.9959C8.80083 14.9959 8.04909 14.2441 8.04909 13.3201C8.04909 12.4266 8.7517 11.6943 9.63347 11.6467L9.09668 12.1853C8.59868 12.6849 8.59921 13.497 9.09791 13.9958V13.9958ZM7.37456 13.3201C7.37456 14.616 8.429 15.6704 9.72489 15.6704C11.0208 15.6704 12.0752 14.6161 12.0752 13.3201C12.0752 13.1662 12.0598 13.0161 12.0313 12.8705L13.1811 11.7169C13.4083 12.2046 13.5357 12.7477 13.5357 13.3201C13.5357 15.4212 11.8262 17.1307 9.72489 17.1307C7.62356 17.1307 5.91425 15.4212 5.91425 13.3201C5.91425 11.2187 7.62356 9.50926 9.72489 9.50926C10.3194 9.50926 10.8822 9.64666 11.384 9.89057L10.2489 11.0294C10.0804 10.9906 9.9051 10.9697 9.72489 10.9697C8.429 10.9697 7.37456 12.024 7.37456 13.3201V13.3201ZM10.4335 13.5182C10.3189 13.6331 10.1664 13.6965 10.0042 13.6965C10.0041 13.6965 10.0039 13.6965 10.0039 13.6965C9.84176 13.6965 9.68944 13.6335 9.57486 13.5189C9.33884 13.2827 9.33849 12.8982 9.57433 12.6617L19.2775 2.92645C19.392 2.81151 19.5444 2.74816 19.7065 2.74799H19.707C19.869 2.74799 20.0213 2.81116 20.1359 2.92574C20.3721 3.16194 20.3724 3.5464 20.1364 3.78295L10.4335 13.5182Z"/>
</g>
</svg>
