<svg width="18" height="18" viewBox="0 0 18 18" fill="black" xmlns="http://www.w3.org/2000/svg">
<path d="M9.5 3.83337C6.25197 3.83337 3.30648 5.6104 1.13302 8.49677C0.955661 8.73324 0.955661 9.06361 1.13302 9.30008C3.30648 12.1899 6.25197 13.967 9.5 13.967C12.748 13.967 15.6935 12.1899 17.867 9.30356C18.0443 9.06708 18.0443 8.73672 17.867 8.50024C15.6935 5.6104 12.748 3.83337 9.5 3.83337ZM9.733 12.4681C7.57691 12.6038 5.79641 10.8267 5.93203 8.66717C6.04332 6.88666 7.4865 5.44348 9.267 5.3322C11.4231 5.19657 13.2036 6.9736 13.068 9.13316C12.9532 10.9102 11.51 12.3534 9.733 12.4681ZM9.62519 10.8198C8.46369 10.8928 7.50389 9.93647 7.58039 8.77497C7.63951 7.81517 8.41848 7.03967 9.37829 6.97708C10.5398 6.90405 11.4996 7.86038 11.4231 9.02188C11.3605 9.98516 10.5815 10.7607 9.62519 10.8198Z" fill-opacity="0.5"/>
<line x1="0.646447" y1="17.6464" x2="17.6464" y2="0.646446" stroke="black" stroke-opacity="0.5"/>
</svg>
