<svg width="18" height="11" viewBox="0 0 18 11" fill="none" xmlns="http://www.w3.org/2000/svg">
<path d="M9 0C5.56091 0 2.44216 1.88156 0.140841 4.93771C-0.0469469 5.18809 -0.0469469 5.5379 0.140841 5.78828C2.44216 8.84811 5.56091 10.7297 9 10.7297C12.4391 10.7297 15.5578 8.84811 17.8592 5.79196C18.0469 5.54158 18.0469 5.19178 17.8592 4.94139C15.5578 1.88156 12.4391 0 9 0ZM9.2467 9.14268C6.96379 9.28628 5.07855 7.40472 5.22215 5.11813C5.33998 3.23289 6.86806 1.70482 8.7533 1.58699C11.0362 1.44339 12.9214 3.32495 12.7778 5.61154C12.6563 7.4931 11.1283 9.02117 9.2467 9.14268ZM9.13256 7.39736C7.90273 7.47468 6.88647 6.4621 6.96748 5.23228C7.03007 4.21602 7.85486 3.39491 8.87113 3.32863C10.101 3.2513 11.1172 4.26388 11.0362 5.49371C10.9699 6.51365 10.1451 7.33476 9.13256 7.39736Z" fill="#0030DB"/>
</svg>
