<svg width="21" height="21" viewBox="0 0 21 21" fill="#939393" xmlns="http://www.w3.org/2000/svg">
<path d="M20.8946 9.78263H19.8871V5.14783C19.8871 4.03668 18.9831 3.13272 17.872 3.13272H16.5073L15.1109 0.621891C14.898 0.238171 14.493 0 14.0537 0C13.849 0 13.6458 0.0528015 13.4665 0.152322L8.10709 3.13266H2.12058C1.00943 3.13266 0.105469 4.03662 0.105469 5.14777V18.9848C0.105469 20.096 1.00943 20.9999 2.12058 20.9999H17.872C18.9831 20.9999 19.8871 20.096 19.8871 18.9848V14.9211H20.8946V9.78263ZM17.872 3.93873C18.4926 3.93873 18.9996 4.41024 19.0677 5.01357H17.5532L16.9558 3.93873H17.872ZM13.8586 0.856801C14.0476 0.750822 14.302 0.824945 14.4063 1.0132L16.631 5.01319H6.38376L13.8586 0.856801ZM19.081 18.9848C19.081 19.6514 18.5385 20.1939 17.8719 20.1939H2.12058C1.45398 20.1939 0.911475 19.6514 0.911475 18.9848V5.14783C0.911475 4.48123 1.45398 3.93873 2.12058 3.93873H6.65781L4.72491 5.01363H2.37248C2.14961 5.01363 1.96945 5.19417 1.96945 5.41667C1.96945 5.63916 2.14961 5.8197 2.37248 5.8197H3.27525H18.0013H19.081V9.78301H16.1337C14.765 9.78301 13.6511 10.897 13.6511 12.2656V12.4389C13.6511 13.8076 14.7651 14.9216 16.1337 14.9216H19.081V18.9848ZM20.0886 14.1151H19.8871H16.1337C15.2092 14.1151 14.4571 13.3631 14.4571 12.4385V12.2652C14.4571 11.3407 15.2091 10.5886 16.1337 10.5886H19.8871H20.0886V14.1151ZM17.3682 12.385C17.3682 12.8767 16.97 13.2748 16.4783 13.2748C15.9866 13.2748 15.5885 12.8766 15.5885 12.385C15.5885 11.8933 15.9867 11.4951 16.4783 11.4951C16.97 11.495 17.3682 11.8936 17.3682 12.385Z" />
</svg>
